<?xml version="1.0" standalone="no"?>
<!DOCTYPE svg PUBLIC "-//W3C//DTD SVG 20010904//EN"
 "http://www.w3.org/TR/2001/REC-SVG-20010904/DTD/svg10.dtd">
<svg version="1.0" xmlns="http://www.w3.org/2000/svg"
 width="664.000000pt" height="664.000000pt" viewBox="0 0 664.000000 664.000000"
 preserveAspectRatio="xMidYMid meet">
<metadata>
Created by potrace 1.14, written by Peter Selinger 2001-2017
</metadata>
<g transform="translate(0.000000,664.000000) scale(0.100000,-0.100000)"
fill="#000000" stroke="none">
<path d="M4808 4795 c-2 -1 -43 -6 -92 -9 -49 -4 -92 -9 -95 -11 -3 -1 -24 -6
-45 -9 -417 -66 -805 -350 -990 -723 -107 -215 -149 -419 -150 -718 0 -222 21
-372 75 -538 162 -498 592 -844 1145 -921 129 -18 371 -14 491 8 536 97 930
423 1088 899 62 187 79 312 79 567 0 148 -6 233 -19 294 -2 12 -7 37 -9 56 -7
52 -53 202 -82 273 -67 159 -152 286 -273 407 -112 111 -123 120 -216 181
-154 102 -378 192 -535 215 -19 3 -41 7 -47 9 -28 9 -317 27 -325 20z m223
-748 c117 -49 175 -177 140 -307 -11 -40 -46 -78 -284 -319 -296 -297 -327
-321 -422 -321 -86 0 -177 57 -224 139 -7 14 -16 53 -19 88 -9 114 -2 124 297
423 250 251 299 293 361 310 37 10 112 4 151 -13z m302 -662 c116 -55 172
-203 122 -320 -25 -57 -532 -567 -595 -596 -168 -81 -364 54 -347 239 2 32 14
76 25 98 31 59 536 558 592 584 54 25 145 23 203 -5z"/>
<path d="M1528 4785 c-2 -2 -28 -6 -59 -9 -31 -4 -67 -9 -80 -12 -13 -2 -40
-7 -59 -10 -19 -3 -81 -21 -137 -40 -511 -167 -849 -599 -909 -1159 -10 -90
-10 -392 0 -470 61 -506 312 -882 726 -1090 205 -103 407 -146 655 -141 169 4
179 5 290 30 103 24 209 62 308 110 l87 42 0 -93 0 -93 380 0 381 0 -4 913
c-1 501 -6 926 -10 942 -4 17 -14 64 -23 105 -30 138 -94 289 -179 421 -56 87
-74 108 -176 210 -129 128 -282 225 -449 282 -149 51 -217 60 -487 62 -139 2
-253 1 -255 0z m448 -891 l2 -172 -143 -142 -144 -143 -143 143 -142 143 -1
166 c0 91 3 168 6 171 4 3 133 5 286 5 l278 0 1 -171z m-574 -461 l143 -143
-142 -142 -143 -143 -172 0 -173 -1 0 287 0 286 172 0 171 0 144 -144z m1063
-143 l0 -285 -171 0 -172 0 -142 143 -142 143 144 143 144 143 169 -1 170 -1
0 -285z m-628 -292 l141 -143 0 -167 c0 -115 -4 -168 -12 -170 -6 -2 -135 -4
-286 -4 l-275 1 0 172 1 172 139 140 c77 77 142 140 145 141 3 0 69 -64 147
-142z"/>
</g>
</svg>
